<svg xmlns="http://www.w3.org/2000/svg" id="Layer_1" viewBox="0 0 6329.82 1306.33"><defs><style>.cls-1,.cls-2,.cls-3,.cls-4,.cls-5,.cls-6{stroke-width:0px;}.cls-1,.cls-5{fill:#8e082e;}.cls-2,.cls-3{fill:#1a1a18;}.cls-3,.cls-4,.cls-5{fill-rule:evenodd;}.cls-7{stroke:#1a1a18;stroke-width:4px;}.cls-7,.cls-8{fill:none;stroke-miterlimit:22.93;}.cls-4,.cls-6{fill:#2c2019;}.cls-8{stroke:#000002;stroke-width:7.22px;}</style></defs><line class="cls-8" y1="1022.46" x2="3330.46" y2="1022.46"></line><path class="cls-3" d="M81.65,1136.06h22.51v118.68c0,10.47-1.61,19.05-4.9,25.69-3.3,6.64-7.39,11.88-12.33,15.71-4.9,3.83-10.19,6.47-15.83,7.95-5.63,1.5-10.8,2.25-15.47,2.25-11.74,0-21.63-3.02-29.7-9.05-8.04-5.98-13.16-15.1-15.36-27.28l22.04-4.93c1.27,6.24,3.84,11.17,7.74,14.75,3.9,3.63,9,5.4,15.27,5.4,5.61,0,10.1-1.1,13.49-3.27,3.35-2.19,5.98-5.05,7.86-8.56,1.87-3.53,3.13-7.55,3.74-12.11.61-4.51.93-9.12.93-13.82v-111.41Z"></path><path class="cls-3" d="M260.88,1241.36l-30.98-76.25h-.47l-31.42,76.25h62.87ZM220.53,1136.05h20.39l71.1,166.07h-26.3l-16.63-41.06h-79.05l-16.42,41.06h-26.28l73.18-166.07Z"></path><path class="cls-3" d="M381.67,1209.23h29.57c4.35,0,8.7-.37,13-1.05,4.3-.7,8.13-2.01,11.5-3.88,3.35-1.87,6.04-4.56,8.09-8.09,2.01-3.51,3.04-8.09,3.04-13.72s-1.03-10.19-3.04-13.71c-2.05-3.53-4.75-6.24-8.09-8.11-3.37-1.87-7.2-3.15-11.5-3.86-4.3-.7-8.66-1.07-13-1.07h-29.57v53.49h0ZM359.15,1136.05h58.41c10.64,0,19.38,1.45,26.28,4.35,6.87,2.88,12.32,6.54,16.27,10.99,4,4.49,6.81,9.49,8.35,15.03,1.56,5.54,2.36,10.92,2.36,16.06s-.8,10.52-2.36,16.06c-1.54,5.57-4.35,10.57-8.35,15.04-3.95,4.44-9.4,8.11-16.27,11.01-6.9,2.9-15.64,4.35-26.28,4.35h-35.89v73.18h-22.52v-166.07Z"></path><path class="cls-3" d="M598.87,1241.36l-30.98-76.25h-.47l-31.42,76.25h62.87ZM558.51,1136.05h20.39l71.1,166.07h-26.3l-16.62-41.06h-79.04l-16.42,41.06h-26.28l73.18-166.07Z"></path><polygon class="cls-3" points="697.14 1136.06 726.69 1136.06 818.17 1272.57 818.62 1272.57 818.62 1136.06 841.16 1136.06 841.16 1302.13 812.54 1302.13 720.11 1165.61 719.65 1165.61 719.65 1302.13 697.14 1302.13 697.14 1136.06"></polygon><polygon class="cls-3" points="909.41 1136.06 1016.6 1136.06 1016.6 1157.14 931.92 1157.14 931.92 1206.66 1010.73 1206.66 1010.73 1227.75 931.92 1227.75 931.92 1280.99 1020.83 1280.99 1020.83 1302.13 909.41 1302.13 909.41 1136.06"></polygon><path class="cls-3" d="M1083.22,1267.41c4.07,6.1,9.26,10.59,15.59,13.47,6.32,2.9,12.86,4.35,19.6,4.35,3.74,0,7.57-.58,11.48-1.76,3.9-1.17,7.46-2.92,10.66-5.28,3.23-2.36,5.83-5.24,7.88-8.68,2.01-3.46,3.04-7.44,3.04-11.97,0-6.41-2.03-11.29-6.1-14.66-4.07-3.35-9.09-6.15-15.12-8.44-6.01-2.27-12.58-4.46-19.71-6.54-7.11-2.13-13.68-5.05-19.71-8.81-6.01-3.76-11.03-8.79-15.1-15.13-4.07-6.34-6.1-14.92-6.1-25.69,0-4.84,1.05-9.98,3.15-15.48,2.13-5.47,5.43-10.48,9.96-15.01,4.56-4.53,10.39-8.32,17.49-11.39,7.1-3.04,15.67-4.56,25.67-4.56,9.07,0,17.77,1.27,26.05,3.74,8.3,2.52,15.55,7.6,21.82,15.27l-18.28,16.65c-2.83-4.39-6.8-7.91-11.97-10.57-5.17-2.66-11.03-3.97-17.61-3.97-6.24,0-11.43.82-15.59,2.45-4.14,1.64-7.46,3.74-9.95,6.32-2.51,2.59-4.25,5.37-5.29,8.34-1,2.97-1.52,5.71-1.52,8.2,0,7.04,2.03,12.44,6.1,16.2,4.07,3.74,9.12,6.81,15.12,9.14,6.01,2.34,12.61,4.45,19.69,6.34,7.13,1.88,13.7,4.49,19.71,7.86,6.03,3.34,11.08,7.9,15.15,13.61,4.04,5.71,6.08,13.56,6.08,23.57,0,7.97-1.52,15.15-4.56,21.58-3.06,6.41-7.18,11.8-12.32,16.18-5.17,4.39-11.27,7.74-18.28,10.1-7.04,2.34-14.57,3.51-22.51,3.51-10.64,0-20.74-1.87-30.25-5.63-9.56-3.74-17.14-9.52-22.77-17.34l18.54-15.95Z"></path><polygon class="cls-3" points="1234.25 1136.06 1341.45 1136.06 1341.45 1157.14 1256.77 1157.14 1256.77 1206.66 1335.59 1206.66 1335.59 1227.75 1256.77 1227.75 1256.77 1280.99 1345.69 1280.99 1345.69 1302.13 1234.25 1302.13 1234.25 1136.06"></polygon><polygon class="cls-3" points="1528.63 1157.15 1475.16 1157.15 1475.16 1136.06 1604.64 1136.06 1604.64 1157.15 1551.17 1157.15 1551.17 1302.11 1528.63 1302.11 1528.63 1157.15"></polygon><polygon class="cls-3" points="1654.14 1136.06 1761.34 1136.06 1761.34 1157.14 1676.65 1157.14 1676.65 1206.66 1755.47 1206.66 1755.47 1227.75 1676.65 1227.75 1676.65 1280.99 1765.57 1280.99 1765.57 1302.13 1654.14 1302.13 1654.14 1136.06"></polygon><path class="cls-3" d="M1938.67,1171.92c-4.7-6.1-10.64-10.78-17.83-14.08-7.18-3.27-14.64-4.9-22.28-4.9-9.38,0-17.86,1.75-25.46,5.26-7.58,3.51-14.05,8.35-19.45,14.43-5.4,6.1-9.58,13.28-12.56,21.46-2.97,8.23-4.44,17.03-4.44,26.4,0,8.77,1.38,17.05,4.21,24.88,2.83,7.81,6.87,14.71,12.21,20.62,5.31,5.94,11.8,10.66,19.47,14.08,7.65,3.44,16.32,5.17,26.03,5.17s17.91-1.94,25.08-5.87c7.2-3.9,13.3-9.37,18.3-16.41l19.01,14.31c-1.26,1.7-3.43,4.18-6.57,7.39-3.13,3.2-7.3,6.43-12.44,9.6-5.16,3.21-11.39,6.04-18.63,8.47-7.3,2.41-15.69,3.62-25.23,3.62-13.14,0-24.99-2.5-35.54-7.5-10.54-5-19.54-11.57-26.98-19.71-7.44-8.14-13.1-17.3-17-27.56-3.92-10.22-5.87-20.6-5.87-31.08,0-12.83,2.1-24.66,6.34-35.51,4.21-10.88,10.12-20.27,17.72-28.15,7.58-7.9,16.67-14.05,27.33-18.44,10.61-4.35,22.35-6.55,35.16-6.55,10.94,0,21.69,2.11,32.24,6.34,10.59,4.21,19.22,10.71,25.93,19.48l-18.76,14.28Z"></path><polygon class="cls-3" points="2013.7 1136.06 2036.21 1136.06 2036.21 1205 2122.3 1205 2122.3 1136.06 2144.81 1136.06 2144.81 1302.13 2122.3 1302.13 2122.3 1226.12 2036.21 1226.12 2036.21 1302.13 2013.7 1302.13 2013.7 1136.06"></polygon><polygon class="cls-3" points="2213.07 1136.06 2242.62 1136.06 2334.11 1272.57 2334.55 1272.57 2334.55 1136.06 2357.09 1136.06 2357.09 1302.13 2328.47 1302.13 2236.05 1165.61 2235.58 1165.61 2235.58 1302.13 2213.07 1302.13 2213.07 1136.06"></polygon><path class="cls-3" d="M2496.89,1285.22c9.51,0,18.12-1.76,25.81-5.29,7.65-3.51,14.22-8.22,19.69-14.16,5.47-5.96,9.68-12.96,12.65-21,2.97-8.05,4.49-16.6,4.49-25.69s-1.52-17.63-4.49-25.69c-2.97-8.02-7.18-15.04-12.65-20.98-5.47-5.94-12.04-10.68-19.69-14.22-7.69-3.51-16.3-5.26-25.81-5.26s-18.15,1.75-25.81,5.26c-7.67,3.53-14.24,8.28-19.68,14.22-5.49,5.94-9.7,12.96-12.67,20.98-2.97,8.07-4.47,16.62-4.47,25.69s1.5,17.65,4.47,25.69c2.97,8.04,7.18,15.03,12.67,21,5.45,5.94,12.02,10.66,19.68,14.16,7.67,3.53,16.27,5.29,25.81,5.29h0ZM2496.89,1306.33c-12.67,0-24.32-2.22-34.95-6.69-10.64-4.44-19.76-10.59-27.33-18.4-7.57-7.83-13.51-17.05-17.84-27.68-4.28-10.64-6.43-22.14-6.43-34.48s2.15-23.85,6.43-34.49c4.33-10.64,10.27-19.85,17.84-27.66,7.57-7.83,16.69-13.96,27.33-18.42,10.64-4.47,22.28-6.69,34.95-6.69s24.32,2.22,34.93,6.69c10.64,4.47,19.76,10.59,27.33,18.42,7.57,7.81,13.54,17.02,17.84,27.66,4.27,10.64,6.43,22.14,6.43,34.49s-2.15,23.85-6.43,34.48c-4.3,10.64-10.27,19.85-17.84,27.68-7.58,7.81-16.69,13.96-27.33,18.4-10.61,4.47-22.28,6.69-34.93,6.69Z"></path><polygon class="cls-3" points="2636.67 1136.06 2659.19 1136.06 2659.19 1280.99 2735.43 1280.99 2735.43 1302.13 2636.67 1302.13 2636.67 1136.06"></polygon><path class="cls-3" d="M2855.52,1285.22c9.52,0,18.12-1.76,25.81-5.29,7.64-3.51,14.21-8.22,19.68-14.16,5.47-5.96,9.68-12.96,12.64-21,2.97-8.05,4.49-16.6,4.49-25.69s-1.52-17.63-4.49-25.69c-2.97-8.02-7.18-15.04-12.64-20.98-5.47-5.94-12.04-10.68-19.68-14.22-7.69-3.51-16.3-5.26-25.81-5.26s-18.15,1.75-25.81,5.26c-7.67,3.53-14.24,8.28-19.68,14.22-5.49,5.94-9.7,12.96-12.67,20.98-2.97,8.07-4.47,16.62-4.47,25.69s1.5,17.65,4.47,25.69c2.97,8.04,7.18,15.03,12.67,21,5.45,5.94,12.02,10.66,19.68,14.16,7.67,3.53,16.28,5.29,25.81,5.29h0ZM2855.52,1306.33c-12.67,0-24.32-2.22-34.95-6.69-10.64-4.44-19.76-10.59-27.33-18.4-7.58-7.83-13.51-17.05-17.84-27.68-4.27-10.64-6.43-22.14-6.43-34.48s2.15-23.85,6.43-34.49c4.33-10.64,10.27-19.85,17.84-27.66,7.58-7.83,16.69-13.96,27.33-18.42,10.64-4.47,22.28-6.69,34.95-6.69s24.32,2.22,34.93,6.69c10.64,4.47,19.76,10.59,27.33,18.42,7.58,7.81,13.54,17.02,17.84,27.66,4.28,10.64,6.43,22.14,6.43,34.49s-2.15,23.85-6.43,34.48c-4.3,10.64-10.27,19.85-17.84,27.68-7.58,7.81-16.69,13.96-27.33,18.4-10.61,4.47-22.28,6.69-34.93,6.69Z"></path><path class="cls-3" d="M3132.06,1209.23v81.86c-4.1,2.51-8.68,4.7-13.84,6.57-5.14,1.88-10.52,3.49-16.06,4.8-5.57,1.35-11.2,2.31-16.91,2.94-5.71.63-11.05.93-16.06.93-14.08,0-26.64-2.33-37.64-7.01-11.03-4.73-20.34-11.03-27.91-19.01-7.58-8-13.37-17.23-17.35-27.8-4-10.56-5.98-21.69-5.98-33.43,0-12.35,2.15-23.85,6.43-34.49,4.33-10.64,10.27-19.85,17.84-27.66,7.58-7.83,16.69-13.96,27.33-18.42,10.64-4.47,22.28-6.69,34.95-6.69,15.32,0,27.82,1.92,37.5,5.75,9.7,3.83,17.84,9.09,24.41,15.83l-15.95,17.14c-6.87-6.59-14.16-11.15-21.81-13.73-7.67-2.59-15.71-3.88-24.15-3.88-9.54,0-18.15,1.75-25.81,5.26-7.67,3.53-14.24,8.28-19.68,14.22-5.49,5.94-9.7,12.96-12.67,20.98-2.97,8.07-4.47,16.62-4.47,25.69s1.66,18.09,4.91,26.16c3.29,8.07,7.83,15.06,13.61,21,5.8,5.94,12.6,10.59,20.41,13.94,7.81,3.39,16.34,5.05,25.58,5.05,7.97,0,15.5-.73,22.63-2.22,7.1-1.48,13.16-3.65,18.17-6.45v-46.23h-36.8v-21.09h59.34Z"></path><polygon class="cls-3" points="3233.13 1231.27 3170.28 1136.06 3199.14 1136.06 3244.4 1209.01 3291.09 1136.06 3318.52 1136.06 3255.67 1231.27 3255.67 1302.11 3233.13 1302.11 3233.13 1231.27"></polygon><path class="cls-5" d="M1353.57,107.13h-92.19c-39.65,0-74.91,38.41-74.91,72.64v698.53h237.52V179.77c0-40.02-34.02-72.64-70.42-72.64Z"></path><path class="cls-5" d="M734.14,107.13h-300.69c-20.57-1.97-36.99,19.1-46.78,36.54L6.63,878.3h269.85l92.14-177.27h430.33l92.09,177.27h269.87L780.88,143.67c-9.82-17.44-26.23-38.51-46.74-36.54h0ZM448.11,547.58l135.25-261.9,136.12,261.9h-271.37Z"></path><path class="cls-5" d="M2943.83,143.68c-9.8-17.44-26.25-38.51-46.8-36.54h-300.67c-20.51-1.96-36.97,19.11-46.74,36.54l-288.58,564.65h-530.05v-431.25h369.22v156.71h237.61l-.07-253.62-.17-.49c0-40.08-32.47-72.55-72.52-72.55h-698.92c-40.12,0-72.62,32.47-72.62,72.55v626.12c0,40.02,32.5,72.5,72.57,72.5h873.32l92.09-177.25h430.38l92.09,177.25h269.87l-380.02-734.63h0ZM2611.01,547.6l135.26-261.93,136.09,261.93h-271.35Z"></path><path class="cls-5" d="M3149,87.83h14.63c3.09,0,6.18-.14,9.24-.4,3.09-.23,5.87-.89,8.37-1.92,2.45-1.03,4.47-2.57,6.03-4.63,1.52-2.06,2.29-4.89,2.29-8.46s-.78-6.44-2.29-8.46c-1.56-2.06-3.58-3.63-6.03-4.65-2.51-1.03-5.28-1.62-8.37-1.78-3.06-.19-6.15-.28-9.24-.28h-14.63v30.58h0ZM3128.98,40.33h42.08c13.21,0,22.91,2.83,29.15,8.46,6.27,5.66,9.4,13.79,9.4,24.41,0,9.58-2.48,16.79-7.39,21.58-4.94,4.79-11.11,7.6-18.59,8.46l28.27,46.23h-21.06l-27.22-44.68h-14.63v44.68h-20.01V40.33h0ZM3087.11,95.53c0-10.78,2.03-20.95,6.15-30.56,4.12-9.58,9.72-17.93,16.83-25.04,7.1-7.1,15.46-12.72,25.04-16.83,9.58-4.09,19.78-6.15,30.56-6.15s20.97,2.06,30.56,6.15c9.61,4.12,17.93,9.73,25.04,16.83,7.1,7.1,12.72,15.46,16.83,25.04,4.09,9.61,6.15,19.78,6.15,30.56s-2.06,21-6.15,30.58c-4.12,9.59-9.73,17.91-16.83,25.02-7.11,7.13-15.43,12.72-25.04,16.83-9.59,4.12-19.76,6.15-30.56,6.15s-20.98-2.03-30.56-6.15c-9.58-4.12-17.93-9.7-25.04-16.83-7.11-7.1-12.72-15.43-16.83-25.02-4.12-9.58-6.15-19.78-6.15-30.58h0ZM3070.16,95.53c0-13.16,2.51-25.56,7.58-37.11,5.05-11.55,11.9-21.67,20.55-30.3,8.63-8.65,18.76-15.49,30.3-20.54,11.55-5.03,23.92-7.58,37.11-7.58s25.56,2.55,37.1,7.58c11.58,5.05,21.68,11.9,30.33,20.54,8.63,8.63,15.48,18.76,20.55,30.3,5.02,11.55,7.55,23.94,7.55,37.11s-2.52,25.56-7.55,37.13c-5.08,11.55-11.92,21.65-20.55,30.3-8.65,8.65-18.75,15.5-30.33,20.55-11.54,5.05-23.94,7.56-37.1,7.56s-25.56-2.51-37.11-7.56c-11.54-5.05-21.67-11.9-30.3-20.55-8.65-8.65-15.5-18.75-20.55-30.3-5.07-11.57-7.58-23.92-7.58-37.13Z"></path><line class="cls-7" x1="3756.02" y1="1019.86" x2="6264.15" y2="1018.61"></line><polygon class="cls-3" points="4474.83 1080.01 4492.78 1080.01 4521.01 1147.26 4521.51 1147.26 4549.5 1080.01 4567.44 1080.01 4567.44 1168.85 4555.38 1168.85 4555.38 1095.82 4555.15 1095.82 4525.15 1168.85 4517.12 1168.85 4487.13 1095.82 4486.88 1095.82 4486.88 1168.85 4474.83 1168.85 4474.83 1080.01"></polygon><path class="cls-3" d="M4652.52,1136.34l-16.57-40.79h-.25l-16.81,40.79h33.63ZM4630.93,1080.01h10.91l38.04,88.84h-14.06l-8.91-21.96h-42.29l-8.78,21.96h-14.06l39.15-88.84Z"></path><polygon class="cls-3" points="4705.09 1080.01 4717.14 1080.01 4717.14 1118.39 4718.14 1118.39 4757.43 1080.01 4774.22 1080.01 4731.32 1121.03 4777.13 1168.85 4759.55 1168.85 4718.14 1124.42 4717.14 1124.42 4717.14 1168.85 4705.09 1168.85 4705.09 1080.01"></polygon><polygon class="cls-3" points="4800.08 1080.01 4857.42 1080.01 4857.42 1091.29 4812.12 1091.29 4812.12 1117.78 4854.28 1117.78 4854.28 1129.06 4812.12 1129.06 4812.12 1157.54 4859.69 1157.54 4859.69 1168.85 4800.08 1168.85 4800.08 1080.01"></polygon><rect class="cls-2" x="4938.99" y="1079.99" width="12.05" height="88.84"></rect><polygon class="cls-3" points="4987.56 1080.01 5003.37 1080.01 5052.31 1153.04 5052.55 1153.04 5052.55 1080.01 5064.61 1080.01 5064.61 1168.85 5049.3 1168.85 4999.85 1095.82 4999.6 1095.82 4999.6 1168.85 4987.56 1168.85 4987.56 1080.01"></polygon><rect class="cls-2" x="5149.67" y="1079.99" width="12.04" height="88.84"></rect><polygon class="cls-3" points="5198.24 1080.01 5214.05 1080.01 5262.99 1153.04 5263.23 1153.04 5263.23 1080.01 5275.29 1080.01 5275.29 1168.85 5259.98 1168.85 5210.53 1095.82 5210.28 1095.82 5210.28 1168.85 5198.24 1168.85 5198.24 1080.01"></polygon><path class="cls-3" d="M5321.84,1157.55h15.19c5.09,0,9.93-.69,14.48-2.06,4.57-1.38,8.57-3.45,11.98-6.22,3.42-2.77,6.15-6.2,8.15-10.35,2.02-4.14,3.03-8.98,3.03-14.49,0-2.85-.46-6.18-1.39-9.97-.93-3.81-2.66-7.43-5.22-10.86-2.55-3.44-6.08-6.34-10.59-8.73-4.52-2.38-10.37-3.58-17.58-3.58h-18.06v66.25h0ZM5309.78,1080.01h31.01c6.28,0,11.77.7,16.5,2.12,4.73,1.43,8.82,3.32,12.3,5.72,3.47,2.38,6.35,5.12,8.67,8.21,2.29,3.1,4.12,6.28,5.44,9.54,1.35,3.25,2.32,6.52,2.9,9.8.59,3.26.87,6.26.87,9.03,0,5.69-1.05,11.18-3.14,16.5-2.09,5.31-5.19,10.04-9.28,14.18-4.1,4.14-9.18,7.46-15.26,9.98-6.05,2.5-13.07,3.75-21.01,3.75h-29v-88.83Z"></path><rect class="cls-2" x="5418.46" y="1080.01" width="12.04" height="88.84"></rect><path class="cls-3" d="M5516.46,1136.34l-16.57-40.79h-.25l-16.81,40.79h33.63ZM5494.87,1080.01h10.91l38.04,88.84h-14.06l-8.91-21.96h-42.29l-8.78,21.96h-14.06l39.15-88.84Z"></path><path class="cls-4" d="M5161.85,630.8c-34.91-81.38-148.75-80.3-193.56-2.03h-1.46v-57.07h-107.29v365.22h107.29v-202.95c0-71.5,95.44-70.07,95.44-7.53v210.49h107.33v-204.39c0-56.7,85.54-52.73,85.54-3.88v208.27h127.15v-227.13c0-144.98-158.98-164.13-220.44-78.99Z"></path><path class="cls-4" d="M5748.48,692.08c25.68-32.7,68.52-31.47,101.6-5.33l73.46-103.66c-161.99-103.25-331.84,6.5-327.97,172.94,3.97,166.57,208.66,246.58,336.39,145.27l-83.79-110.62c-80.54,55.74-150.3-34.23-99.69-98.6Z"></path><rect class="cls-6" x="5425.84" y="553.49" width="114.96" height="391.16"></rect><path class="cls-4" d="M6081.67,858.8c-30.5,0-55.27-24.38-55.27-54.39s24.78-54.37,55.27-54.37,55.25,24.28,55.25,54.37-24.77,54.39-55.25,54.39h0ZM6112.04,547.89c-51.47,0-79.05.76-128.99,5.59l-18.83,87.88c52.05-3,185.63-20.99,174.75,52.53-287.33-71.68-260.59,254.13-93.5,252.57,72.5-.55,103.93-46.24,104.6-66.97v57.31h110.99v-238.24c0-113.35-40.72-150.68-149.02-150.68Z"></path><rect class="cls-1" x="5359.96" y="289.79" width="239.89" height="158.51"></rect><rect class="cls-6" x="5407.17" y="344.74" width="147.27" height="151.07"></rect><path class="cls-5" d="M4386.81,933.81h-108.89v-55.53h-1.45c-24.59,42.95-47.23,64.44-88.26,64.44-74.5,0-111.67-36.67-111.67-153.57v-220.48h118.81v210.51c0,56.97,77.06,61.34,78.29-1.55l4.28-208.96h108.89v365.14h0ZM4791.78,945.69h-127.14v-213.35c0-69.87-81.7-52.85-81.7-5.44v218.79h-117.35v-375.66h117.35v47.32c14.55-18.85,29.32-37.42,55.66-47.21,60.67-22.65,153.19,3.38,153.19,141.48v234.07h0ZM3761.75,943.38l106.53.79c134.64,1.06,238.64-186.95,81.97-300.97-94.35-68.61-26.79-142.82,65.15-92.04v-127.53c-226.76-62.33-347.24,155.69-191.72,283.93,82.84,68.33,37.16,130.53-60.58,95.9l-1.35,139.93Z"></path><path class="cls-3" d="M6269.78,519.22h7.83c1.65,0,3.3-.07,4.94-.21,1.65-.12,3.14-.48,4.48-1.02,1.32-.55,2.39-1.38,3.23-2.48.81-1.1,1.22-2.61,1.22-4.53s-.41-3.44-1.22-4.53c-.84-1.1-1.91-1.94-3.23-2.49-1.34-.55-2.83-.86-4.48-.95-1.64-.1-3.29-.15-4.94-.15h-7.83v16.36h0ZM6259.07,493.8h22.51c7.07,0,12.26,1.51,15.6,4.53,3.35,3.02,5.03,7.38,5.03,13.06,0,5.13-1.33,8.98-3.95,11.54-2.64,2.56-5.94,4.06-9.94,4.53l15.12,24.73h-11.27l-14.56-23.9h-7.83v23.9h-10.71v-58.38h0ZM6236.67,523.33c0-5.77,1.08-11.21,3.29-16.35,2.2-5.13,5.2-9.59,9.01-13.4,3.8-3.8,8.27-6.81,13.4-9.01,5.13-2.19,10.58-3.29,16.34-3.29s11.22,1.1,16.35,3.29c5.14,2.2,9.59,5.2,13.4,9.01,3.8,3.8,6.81,8.26,9.01,13.4,2.19,5.14,3.29,10.58,3.29,16.35s-1.1,11.23-3.29,16.36c-2.2,5.13-5.2,9.58-9.01,13.38-3.8,3.81-8.25,6.8-13.4,9.01-5.13,2.2-10.57,3.29-16.35,3.29s-11.22-1.09-16.34-3.29c-5.13-2.2-9.59-5.19-13.4-9.01-3.8-3.8-6.8-8.26-9.01-13.38-2.2-5.13-3.29-10.58-3.29-16.36h0ZM6227.6,523.33c0-7.04,1.34-13.67,4.05-19.85,2.7-6.18,6.37-11.59,10.99-16.21,4.62-4.63,10.03-8.29,16.21-10.99,6.18-2.69,12.8-4.05,19.85-4.05s13.67,1.37,19.85,4.05c6.19,2.7,11.59,6.37,16.22,10.99,4.61,4.62,8.28,10.03,10.99,16.21,2.69,6.18,4.04,12.81,4.04,19.85s-1.35,13.67-4.04,19.86c-2.71,6.18-6.38,11.58-10.99,16.21-4.63,4.63-10.03,8.29-16.22,10.99-6.18,2.7-12.81,4.04-19.85,4.04s-13.67-1.34-19.85-4.04c-6.18-2.7-11.59-6.37-16.21-10.99-4.63-4.63-8.29-10.03-10.99-16.21-2.72-6.19-4.05-12.8-4.05-19.86Z"></path></svg>